<svg id="SvgjsSvg1029" xmlns="http://www.w3.org/2000/svg" version="1.1" xmlns:xlink="http://www.w3.org/1999/xlink" xmlns:svgjs="http://svgjs.com/svgjs" width="21" height="21"><defs id="SvgjsDefs1030"></defs><path id="SvgjsPath1031" d="M1740 153.669L1740 155.99900000000002L1731.05 155.99900000000002C1726.6 155.99900000000002 1723 152.348 1723 147.84400000000002C1723 143.34000000000003 1726.6 139.68900000000002 1731.05 139.68900000000002L1740.1299999999999 139.68900000000002L1738.12 136.67900000000003C1737.77 136.15000000000003 1737.9799999999998 135.47200000000004 1738.59 135.16600000000003C1739.1999999999998 134.86100000000002 1739.98 135.04200000000003 1740.34 135.57200000000003L1743.28 139.99200000000002C1743.32 140.025 1743.37 140.04700000000003 1743.3999999999999 140.08700000000002C1743.4699999999998 140.15500000000003 1743.5099999999998 140.233 1743.55 140.311C1743.57 140.35 1743.6 140.383 1743.62 140.425C1743.6599999999999 140.52300000000002 1743.6699999999998 140.62300000000002 1743.6799999999998 140.727C1743.6799999999998 140.738 1743.6799999999998 140.749 1743.6799999999998 140.76C1743.6899999999998 140.774 1743.6899999999998 140.786 1743.6899999999998 140.79999999999998C1743.6999999999998 140.81699999999998 1743.6999999999998 140.83399999999997 1743.6999999999998 140.85299999999998C1743.6999999999998 140.87199999999999 1743.6899999999998 140.88899999999998 1743.6899999999998 140.90699999999998C1743.6899999999998 140.92 1743.6899999999998 140.933 1743.6799999999998 140.94599999999997C1743.6799999999998 140.95299999999997 1743.6799999999998 140.95799999999997 1743.6799999999998 140.96499999999997C1743.6699999999998 141.11799999999997 1743.6299999999999 141.26199999999997 1743.5499999999997 141.39899999999997C1743.5499999999997 141.39899999999997 1743.5499999999997 141.39899999999997 1743.5499999999997 141.39999999999998C1743.4899999999998 141.51099999999997 1743.4099999999996 141.60899999999998 1743.2999999999997 141.69699999999997C1743.2899999999997 141.71399999999997 1743.2799999999997 141.73599999999996 1743.2599999999998 141.75099999999998L1740.3399999999997 146.135C1739.9799999999998 146.665 1739.1999999999996 146.846 1738.5899999999997 146.54C1737.9799999999998 146.23399999999998 1737.7699999999998 145.557 1738.1199999999997 145.027L1740.1299999999997 142.018L1731.0499999999997 142.018C1727.8799999999997 142.018 1725.2999999999997 144.626 1725.2999999999997 147.844C1725.2999999999997 151.06199999999998 1727.8799999999997 153.66899999999998 1731.0499999999997 153.66899999999998Z " fill="#ffffff" transform="matrix(1,0,0,1,-1723,-135)"></path></svg>