<svg id="SvgjsSvg1000" xmlns="http://www.w3.org/2000/svg" version="1.1" xmlns:xlink="http://www.w3.org/1999/xlink" xmlns:svgjs="http://svgjs.com/svgjs" width="145" height="145"><defs id="SvgjsDefs1001"></defs><path id="SvgjsPath1007" d="M1150.92 2052L1030.0800000000002 2052C1023.4100000000002 2052 1018.0000000000001 2046.59 1018.0000000000001 2039.92L1018.0000000000001 1919.0800000000002C1018.0000000000001 1912.41 1023.4100000000001 1907.0000000000002 1030.0800000000002 1907.0000000000002L1150.92 1907.0000000000002C1157.5900000000001 1907.0000000000002 1163 1912.4100000000003 1163 1919.0800000000002L1163 2039.92C1163 2046.5900000000001 1157.59 2052 1150.92 2052ZM1150.92 1919.08L1030.0800000000002 1919.08L1030.0800000000002 1973.46L1060.9 1973.46C1063.7 1959.67 1075.89 1949.29 1090.5 1949.29C1105.11 1949.29 1117.3 1959.67 1120.1 1973.46L1150.9199999999998 1973.46ZM1150.92 1985.54L1120.1000000000001 1985.54C1117.3000000000002 1999.33 1105.1100000000001 2009.71 1090.5000000000002 2009.71C1075.8900000000003 2009.71 1063.7000000000003 1999.33 1060.9000000000003 1985.54L1030.0800000000004 1985.54L1030.0800000000004 2039.92L1150.9200000000003 2039.92ZM1072.37 1979.5C1072.37 1989.51 1080.4899999999998 1997.62 1090.5 1997.62C1100.51 1997.62 1108.62 1989.51 1108.62 1979.5C1108.62 1969.49 1100.51 1961.37 1090.5 1961.37C1080.49 1961.37 1072.37 1969.4899999999998 1072.37 1979.5ZM1120.71 1940.23C1120.71 1945.23 1124.76 1949.29 1129.77 1949.29C1134.78 1949.29 1138.83 1945.23 1138.83 1940.23C1138.83 1935.22 1134.78 1931.17 1129.77 1931.17C1124.76 1931.17 1120.71 1935.22 1120.71 1940.23Z " fill="#1d1f2c" transform="matrix(1,0,0,1,-1018,-1907)"></path></svg>