<svg id="SvgjsSvg1023" xmlns="http://www.w3.org/2000/svg" version="1.1" xmlns:xlink="http://www.w3.org/1999/xlink" xmlns:svgjs="http://svgjs.com/svgjs" width="161" height="141"><defs id="SvgjsDefs1024"></defs><path id="SvgjsPath1025" d="M1153.94 2907L1013.0600000000001 2907C1007.5000000000001 2907 1003.0000000000001 2902.49 1003.0000000000001 2896.93L1003.0000000000001 2796.21C1003.0000000000001 2790.65 1007.5000000000001 2786.14 1013.0600000000001 2786.14L1038.22 2786.14L1058.34 2766L1108.6599999999999 2766L1128.7799999999997 2786.14L1153.9399999999998 2786.14C1159.4899999999998 2786.14 1163.9999999999998 2790.65 1163.9999999999998 2796.21L1163.9999999999998 2896.93C1163.9999999999998 2902.49 1159.4899999999998 2907 1153.9399999999998 2907ZM1148.91 2801.25L1122.53 2801.25L1102.3999999999999 2781.11L1064.6 2781.11L1044.4699999999998 2801.25L1018.0899999999998 2801.25L1018.0899999999998 2891.89L1148.9099999999999 2891.89ZM1083.5 2806.28C1102.95 2806.28 1118.72 2822.07 1118.72 2841.53C1118.72 2861 1102.95 2876.78 1083.5 2876.78C1064.05 2876.78 1048.28 2861 1048.28 2841.53C1048.28 2822.07 1064.05 2806.28 1083.5 2806.28ZM1083.5 2861.68C1094.6 2861.68 1103.62 2852.64 1103.62 2841.5299999999997C1103.62 2830.43 1094.6 2821.39 1083.5 2821.39C1072.4 2821.39 1063.37 2830.43 1063.37 2841.5299999999997C1063.37 2852.64 1072.3999999999999 2861.68 1083.5 2861.68Z " fill="#1d1f2c" transform="matrix(1,0,0,1,-1003,-2766)"></path></svg>