<svg id="SvgjsSvg1026" xmlns="http://www.w3.org/2000/svg" version="1.1" xmlns:xlink="http://www.w3.org/1999/xlink" xmlns:svgjs="http://svgjs.com/svgjs" width="12" height="20"><defs id="SvgjsDefs1027"></defs><path id="SvgjsPath1028" d="M1661.33 66.9991L1652.6699999999998 66.9991C1651.7499999999998 66.9991 1650.9999999999998 66.2332 1650.9999999999998 65.29129999999999L1650.9999999999998 49.70689999999999C1650.9999999999998 48.76529999999999 1651.7499999999998 47.99939999999999 1652.6699999999998 47.99939999999999L1661.33 47.99939999999999C1662.25 47.99939999999999 1663 48.76529999999999 1663 49.70689999999999L1663 65.29129999999999C1663 66.2332 1662.25 66.9991 1661.33 66.9991ZM1660.9 50.7069C1660.9 50.386599999999994 1660.64 50.125699999999995 1660.3300000000002 50.125699999999995L1653.67 50.125699999999995C1653.3600000000001 50.125699999999995 1653.1000000000001 50.386599999999994 1653.1000000000001 50.7069L1653.1000000000001 60.220299999999995L1660.9 60.220299999999995ZM1660.9 61.3472L1653.1000000000001 61.3472L1653.1000000000001 64.2913C1653.1000000000001 64.61160000000001 1653.3600000000001 64.8725 1653.67 64.8725L1660.3300000000002 64.8725C1660.64 64.8725 1660.9 64.6116 1660.9 64.2913ZM1657.98 62.9964C1657.98 62.7327 1657.88 62.4744 1657.69 62.288000000000004C1657.51 62.1019 1657.26 61.995000000000005 1657 61.995000000000005C1656.74 61.995000000000005 1656.49 62.10190000000001 1656.31 62.288000000000004C1656.12 62.474900000000005 1656.02 62.7327 1656.02 62.9964C1656.02 63.2603 1656.12 63.5184 1656.31 63.7045C1656.49 63.891200000000005 1656.74 63.997800000000005 1657 63.997800000000005C1657.26 63.997800000000005 1657.51 63.891200000000005 1657.69 63.7045C1657.88 63.5184 1657.98 63.2603 1657.98 62.9964Z " fill="#ffffff" transform="matrix(1,0,0,1,-1651,-47)"></path></svg>