<svg id="SvgjsSvg1008" xmlns="http://www.w3.org/2000/svg" version="1.1" xmlns:xlink="http://www.w3.org/1999/xlink" xmlns:svgjs="http://svgjs.com/svgjs" width="26" height="40"><defs id="SvgjsDefs1009"></defs><path id="SvgjsPath1010" d="M1123.37 888.765C1123.37 888.985 1123.28 889.184 1123.1399999999999 889.329L1120.55 891.9849999999999C1120.4099999999999 892.1289999999999 1120.21 892.2179999999998 1120 892.2179999999998C1119.79 892.2179999999998 1119.59 892.1289999999998 1119.45 891.9849999999999L1116.8600000000001 889.329C1116.72 889.184 1116.63 888.9849999999999 1116.63 888.765C1116.63 888.3249999999999 1116.98 887.968 1117.41 887.968C1117.6200000000001 887.968 1117.8200000000002 888.058 1117.96 888.202L1119.22 889.498L1119.22 880.797C1119.22 880.356 1119.57 880 1120 880C1120.43 880 1120.78 880.356 1120.78 880.797L1120.78 889.498L1122.04 888.202C1122.18 888.058 1122.3799999999999 887.968 1122.59 887.968C1123.02 887.968 1123.37 888.3249999999999 1123.37 888.765ZM1120 898.999C1112.83 898.999 1107.01 893.307 1107.01 886.282L1107.01 872.717C1107.01 865.692 1112.83 859.999 1120 859.999C1127.17 859.999 1132.99 865.692 1132.99 872.717L1132.99 886.282C1132.99 893.307 1127.17 898.999 1120 898.999ZM1129.83 870.691C1129.83 866.4830000000001 1124.3 863.0600000000001 1120 863.0600000000001C1115.7 863.0600000000001 1110.17 866.4830000000001 1110.17 870.691L1110.17 888.3090000000001C1110.17 892.5160000000001 1115.7 895.9390000000001 1120 895.9390000000001C1124.3 895.9390000000001 1129.83 892.5160000000001 1129.83 888.3090000000001Z " fill="#ffffff" transform="matrix(1,0,0,1,-1107,-859)"></path></svg>