<svg id="SvgjsSvg1011" xmlns="http://www.w3.org/2000/svg" version="1.1" xmlns:xlink="http://www.w3.org/1999/xlink" xmlns:svgjs="http://svgjs.com/svgjs" width="153" height="167"><defs id="SvgjsDefs1012"></defs><path id="SvgjsPath1013" d="M1161.05 1233L1017.9499999999999 1233C1015.2199999999999 1233 1012.9999999999999 1230.78 1012.9999999999999 1228.04L1012.9999999999999 1070.96C1012.9999999999999 1068.22 1015.2199999999999 1066 1017.9499999999999 1066L1161.05 1066C1163.78 1066 1166 1068.22 1166 1070.96L1166 1228.04C1166 1230.78 1163.78 1233 1161.05 1233ZM1156.09 1075.93L1022.9099999999999 1075.93L1022.9099999999999 1223.0700000000002L1156.09 1223.0700000000002ZM1142.65 1200.12L1036.3500000000001 1200.12C1033.6200000000001 1200.12 1031.4 1197.8999999999999 1031.4 1195.1599999999999L1031.4 1088.62C1031.4 1085.8799999999999 1033.6200000000001 1083.6599999999999 1036.3500000000001 1083.6599999999999L1142.65 1083.6599999999999C1145.38 1083.6599999999999 1147.6000000000001 1085.8799999999999 1147.6000000000001 1088.62L1147.6000000000001 1195.1599999999999C1147.6000000000001 1197.8999999999999 1145.38 1200.12 1142.65 1200.12ZM1041.3 1190.2L1137.69 1190.2L1137.69 1093.5900000000001L1041.3 1093.5900000000001Z " fill="#1d1f2c" transform="matrix(1,0,0,1,-1013,-1066)"></path></svg>