<svg xmlns="http://www.w3.org/2000/svg" xmlns:xlink="http://www.w3.org/1999/xlink" width="260" height="574" viewBox="0 0 260 574"><svg width="260" height="43" viewBox="-5 -5 260 43" id="back-logo" y="0"><path d="M0 1h250l-20 32H20z" fill="#282c3b"></path></svg><svg width="31" height="31" viewBox="-5 -5 31 31" id="m-arrow-around" y="43"><path d="M17 18.669v2.33H8.05C3.6 20.999 0 17.348 0 12.844s3.6-8.155 8.05-8.155h9.08l-2.01-3.01c-.35-.529-.14-1.207.47-1.513.61-.305 1.39-.124 1.75.406l2.94 4.42c.04.033.09.055.12.095.07.068.11.146.15.224.02.039.05.072.07.114.04.098.05.198.06.302v.033c.01.014.01.026.01.04.01.017.01.034.01.053 0 .019-.01.036-.01.054 0 .013 0 .026-.01.039v.019a.968.968 0 0 1-.13.434V6.4a.956.956 0 0 1-.25.297c-.01.017-.02.039-.04.054l-2.92 4.384c-.36.53-1.14.711-1.75.405-.61-.306-.82-.983-.47-1.513l2.01-3.009H8.05c-3.17 0-5.75 2.608-5.75 5.826 0 3.218 2.58 5.825 5.75 5.825z" fill="#fff"></path></svg><svg width="20" height="18" viewBox="-5 -5 20 18" id="m-arrow-small-next" y="74"><path d="M5.454 5.083H0V3.916h5.454V.999h.001L9.001 4.5 5.455 8h-.001z" fill="#3a3f56"></path></svg><svg width="26" height="37" viewBox="-5 -5 26 37" id="m-next" y="92"><path d="M.99 2.24L2.27.99l11.47 11.26 1.27 1.25L2.27 26.01.99 24.76 12.46 13.5z" fill="#fff"></path></svg><svg width="22" height="30" viewBox="-5 -5 22 30" id="m-phone" y="129"><path d="M10.33 20H1.67C.75 20 0 19.232 0 18.29V2.707C0 1.765.75.999 1.67.999h8.66c.92 0 1.67.766 1.67 1.708V18.29c0 .942-.75 1.708-1.67 1.708zM9.9 3.706a.58.58 0 0 0-.57-.581H2.67a.58.58 0 0 0-.57.58v9.514h7.8zm0 10.64H2.1v2.944c0 .32.26.582.57.582h6.66c.31 0 .57-.261.57-.582zm-2.92 1.65a.99.99 0 0 0-.29-.709.963.963 0 0 0-1.38 0 .991.991 0 0 0-.29.708c0 .264.1.522.29.709a.96.96 0 0 0 1.38 0 .99.99 0 0 0 .29-.709z" fill="#fff"></path></svg><svg width="171" height="151" viewBox="-5 -5 171 151" id="m-photoparat" y="159"><path d="M150.94 141H10.06C4.5 141 0 136.49 0 130.93V30.21c0-5.56 4.5-10.07 10.06-10.07h25.16L55.34 0h50.32l20.12 20.14h25.16c5.55 0 10.06 4.51 10.06 10.07v100.72c0 5.56-4.51 10.07-10.06 10.07zm-5.03-105.75h-26.38L99.4 15.11H61.6L41.47 35.25H15.09v90.64h130.82zM80.5 40.28c19.45 0 35.22 15.79 35.22 35.25 0 19.47-15.77 35.25-35.22 35.25S45.28 95 45.28 75.53c0-19.46 15.77-35.25 35.22-35.25zm0 55.4c11.1 0 20.12-9.04 20.12-20.15 0-11.1-9.02-20.14-20.12-20.14-11.1 0-20.13 9.04-20.13 20.14 0 11.11 9.03 20.15 20.13 20.15z" fill="#1d1f2c"></path></svg><svg width="26" height="37" viewBox="-5 -5 26 37" id="m-prev" y="310"><path d="M15.007 24.76l-1.274 1.25L2.264 14.75.99 13.5 13.733.99l1.274 1.25L3.538 13.5z" fill="#fff"></path></svg><svg width="36" height="50" viewBox="-5 -5 36 50" id="m-scrollDown" y="347"><path d="M16.37 29.765c0 .22-.09.419-.23.564l-2.59 2.656a.774.774 0 0 1-.55.233.774.774 0 0 1-.55-.233l-2.59-2.656a.812.812 0 0 1-.23-.564c0-.44.35-.797.78-.797.21 0 .41.09.55.234l1.26 1.296v-8.701c0-.441.35-.797.78-.797.43 0 .78.356.78.797v8.701l1.26-1.296a.775.775 0 0 1 .55-.234c.43 0 .78.357.78.797zM13 39.999C5.83 39.999.01 34.307.01 27.282V13.717C.01 6.692 5.83.999 13 .999s12.99 5.693 12.99 12.718v13.565c0 7.025-5.82 12.717-12.99 12.717zm9.83-28.308c0-4.208-5.53-7.631-9.83-7.631s-9.83 3.423-9.83 7.631v17.618c0 4.207 5.53 7.63 9.83 7.63s9.83-3.423 9.83-7.63z" fill="#fff"></path></svg><svg width="163" height="177" viewBox="-5 -5 163 177" id="m-square" y="397"><path d="M148.05 167H4.95C2.22 167 0 164.78 0 162.04V4.96C0 2.22 2.22 0 4.95 0h143.1c2.73 0 4.95 2.22 4.95 4.96v157.08c0 2.74-2.22 4.96-4.95 4.96zM143.09 9.93H9.91v147.14h133.18zm-13.44 124.19H23.35c-2.73 0-4.95-2.22-4.95-4.96V22.62c0-2.74 2.22-4.96 4.95-4.96h106.3c2.73 0 4.95 2.22 4.95 4.96v106.54c0 2.74-2.22 4.96-4.95 4.96zM28.3 124.2h96.39V27.59H28.3z" fill="#1d1f2c"></path></svg></svg>